<?xml version="1.0" encoding="iso-8859-1"?>
<!-- Generator: Adobe Illustrator 19.0.0, SVG Export Plug-In . SVG Version: 6.00 Build 0)  -->
<svg version="1.1" id="Capa_1" xmlns="http://www.w3.org/2000/svg" xmlns:xlink="http://www.w3.org/1999/xlink" x="0px" y="0px"
	 viewBox="0 0 385.567 385.567" style="enable-background:new 0 0 385.567 385.567;" xml:space="preserve">
<path style="fill:#E3C6BA;" d="M325.486,55.38C289.959,19.853,242.939,0,192.784,0C88.816,0,4.702,84.114,4.702,188.082v111.282
	c0,8.882,6.792,15.673,15.673,15.673h34.482V283.69H36.049v-95.608c0-86.204,70.531-156.735,156.735-156.735
	c41.796,0,80.98,16.196,110.759,45.976s45.976,68.963,45.976,110.759v95.608h-18.286v31.347h33.959
	c8.882,0,15.673-6.792,15.673-15.673V188.082C380.865,137.927,361.012,90.906,325.486,55.38z"/>
<g>
	<path style="fill:#E3C6BA;" d="M49.633,369.371c0,8.359,6.792,15.673,15.673,15.673l56.947,0.522l0,0
		c4.18,0,7.837-1.567,10.971-4.702c3.135-3.135,4.702-6.792,4.702-10.971V234.057c0-8.882-6.792-15.673-15.673-15.673H65.306
		c-8.882,0-15.673,6.792-15.673,15.673v49.633v31.347V369.371z"/>
	<path style="fill:#E3C6BA;" d="M336.457,234.057c0-8.882-6.792-15.673-15.673-15.673h-57.469c-8.882,0-15.673,6.792-15.673,15.673
		v135.314c0,8.882,6.792,15.673,15.673,15.673h57.469c8.882,0,15.673-6.792,15.673-15.673v-54.335V283.69V234.057z"/>
</g>
<g>
</g>
<g>
</g>
<g>
</g>
<g>
</g>
<g>
</g>
<g>
</g>
<g>
</g>
<g>
</g>
<g>
</g>
<g>
</g>
<g>
</g>
<g>
</g>
<g>
</g>
<g>
</g>
<g>
</g>
</svg>
