<svg width="100" height="32" viewBox="0 0 100 26" fill="none" xmlns="http://www.w3.org/2000/svg">
    <path d="M12.82 16.08C12.82 18.6933 11.1067 20 7.68
        20H1.94V6.04H7.56C8.98667 6.04 10.0867 6.36667 10.86 7.02C11.6467
        7.67333 12.04 8.55333 12.04 9.66C12.04 11.1267 11.4 12.1467 10.12
        12.72V12.78C11.92 13.3533 12.82 14.4533 12.82 16.08ZM3.76
        18.3H7.5C8.79333 18.3 9.70667 18.1 10.24 17.7C10.7867 17.3 11.06
        16.7333 11.06 16C11.06 14.48 9.88 13.72 7.52 13.72H3.76V18.3ZM3.76
        12.08H7.08C8.26667 12.08 9.1 11.88 9.58 11.48C10.06 11.08 10.3
        10.5467 10.3 9.88C10.3 9.2 10.04 8.67333 9.52 8.3C9.01333 7.92667
        8.31333 7.74 7.42 7.74H3.76V12.08ZM18.9472 20.2C17.8405 20.2 16.9672
        19.8267 16.3272 19.08C15.6872 18.3333 15.3672 17.4 15.3672
        16.28V9.8H17.1872V16.08C17.1872 17.7067 17.9205 18.52 19.3872
        18.52C20.5472 18.52 21.6405 17.88 22.6672
        16.6V9.8H24.4872V20H22.8872L22.6672 18.72V18.42H22.6272C21.5472
        19.6067 20.3205 20.2 18.9472 20.2ZM36.6542 9.8L30.5142
        24.6H28.6742L30.3942 20.16L26.1742 9.8H28.1342L31.3342
        17.86H31.4142L34.6942 9.8H36.6542Z" fill="black" />
    <path d="M45.6936 6.04V20H43.8736V6.04H45.6936ZM59.4767
          6.04V7.74H54.6567V20H52.8367V7.74H48.0167V6.04H59.4767Z" fill="#E3C6BA" />
    <rect x="64" y="5" width="8" height="8" rx="2" fill="#E3C6BA" />
    <rect x="72" y="13" width="8" height="8" rx="2" fill="#E3C6BA" />
  </svg>