<svg id="Layer_1" enable-background="new 0 0 512 512" height="512" viewBox="0 0 512 512" width="512"
    xmlns="http://www.w3.org/2000/svg">
    <path
        d="m464.883 208.867h-417.766c-25.98 0-47.117 21.136-47.117 47.149 0 25.98 21.137 47.117 47.117 47.117h417.766c25.98 0 47.117-21.137 47.117-47.149 0-25.981-21.137-47.117-47.117-47.117z"
        fill="#d8e9ff" />
    <path
        d="m512 255.984c0-25.98-21.137-47.117-47.117-47.117h-112.483v94.267h112.482c25.981-.001 47.118-21.137 47.118-47.15z"
        fill="#c1d1ff" />
    <path
        d="m464.883 385.6h-417.766c-25.98 0-47.117 21.137-47.117 47.15 0 25.98 21.137 47.117 47.117 47.117h417.766c25.98 0 47.117-21.137 47.117-47.149 0-25.981-21.137-47.118-47.117-47.118z"
        fill="#d8e9ff" />
    <path
        d="m512 432.717c0-25.98-21.137-47.117-47.117-47.117h-305.283v94.267h305.283c25.98 0 47.117-21.137 47.117-47.15z"
        fill="#c1d1ff" />
    <path
        d="m464.883 32.133h-417.766c-25.98 0-47.117 21.137-47.117 47.15 0 25.98 21.137 47.117 47.117 47.117h417.766c25.98 0 47.117-21.137 47.117-47.149 0-25.981-21.137-47.118-47.117-47.118z"
        fill="#d8e9ff" />
    <path d="m512 79.25c0-25.98-21.137-47.117-47.117-47.117h-241.017v94.267h241.017c25.98 0 47.117-21.137 47.117-47.15z"
        fill="#c1d1ff" />
    <ellipse cx="223.866" cy="79.267" fill="#E3C6BA" rx="79.267" ry="79.267"
        transform="matrix(.924 -.383 .383 .924 -13.293 91.704)" />
    <path d="m303.134 79.267c0-43.708-35.56-79.267-79.268-79.267v158.533c43.708 0 79.268-35.559 79.268-79.266z"
        fill="#E3C6BA" />
    <ellipse cx="352.401" cy="256" fill="#E3C6BA" rx="79.267" ry="79.267"
        transform="matrix(.924 -.383 .383 .924 -71.142 154.345)" />
    <path d="m431.668 256c0-43.708-35.56-79.267-79.268-79.267v158.533c43.708.001 79.268-35.558 79.268-79.266z"
        fill="#E3C6BA" />
    <ellipse cx="159.6" cy="432.733" fill="#E3C6BA" rx="79.267" ry="79.267"
        transform="matrix(.924 -.383 .383 .924 -153.451 94.016)" />
    <path d="m238.867 432.733c0-43.708-35.56-79.267-79.268-79.267v158.534c43.709 0 79.268-35.559 79.268-79.267z"
        fill="#E3C6BA" /></svg>