<svg height="512" viewBox="0 0 512 512" width="512" xmlns="http://www.w3.org/2000/svg">
    <g id="flat">
        <path d="m70.541 331a201.009 201.009 0 0 1 -8.24-125l15.5 3.988a185.008 185.008 0 0 0 7.576 115z"
            fill="#E3C6BA" />
        <path d="m441.459 331-14.831-6a185.008 185.008 0 0 0 7.576-115l15.5-3.988a201.009 201.009 0 0 1 -8.24 125z"
            fill="#E3C6BA" />
        <path
            d="m256 43.406c-94.5 0-174.24 63.131-199.379 149.514a15.388 15.388 0 0 0 14.779 19.674 15.361 15.361 0 0 0 14.755-11.058 176.924 176.924 0 0 1 339.684 0 15.361 15.361 0 0 0 14.761 11.058 15.388 15.388 0 0 0 14.782-19.674c-25.142-86.383-104.882-149.514-199.382-149.514z"
            fill="#E3C6BA" />
        <path
            d="m138.923 449.89-35.385 10.815a11 11 0 0 1 -13.738-7.305l-33.317-109.022a11 11 0 0 1 7.305-13.734l35.384-10.815z"
            fill="#E3C6BA" />
        <path d="m176.54 463.489-35.279-5.948-44.427-145.363 25.926-24.654z" fill="#E3C6BA" />
        <rect fill="#E3C6BA" height="216" rx="10" transform="matrix(.956 -.292 .292 .956 -99.15 68.674)" width="64"
            x="148.253" y="258.153" />
        <path
            d="m373.077 449.89 35.385 10.815a11 11 0 0 0 13.738-7.305l33.321-109.022a11 11 0 0 0 -7.305-13.734l-35.384-10.815z"
            fill="#E3C6BA" />
        <path d="m335.46 463.489 35.279-5.948 44.427-145.363-25.926-24.654z" fill="#E3C6BA" />
        <rect fill="#E3C6BA" height="64" rx="10" transform="matrix(.292 -.956 .956 .292 -115.381 576.393)" width="216"
            x="223.747" y="334.153" />
        <g fill="#6b9777">
            <path d="m302.343 209.657a65.612 65.612 0 0 0 -92.686 0l-11.314-11.314a81.632 81.632 0 0 1 115.314 0z" />
            <path d="m282.343 229.657a37.254 37.254 0 0 0 -52.686 0l-11.314-11.314a53.255 53.255 0 0 1 75.314 0z" />
            <path d="m261.656 250.343a8 8 0 0 0 -11.312 0l-11.315-11.313a24 24 0 0 1 33.942 0z" />
            <circle cx="256" cy="275.314" r="11.314" />
        </g>
    </g>
</svg>